<?xml version="1.0" encoding="UTF-8"?>
<!DOCTYPE svg PUBLIC "-//W3C//DTD SVG 1.1//EN" "http://www.w3.org/Graphics/SVG/1.1/DTD/svg11.dtd">
<svg xmlns="http://www.w3.org/2000/svg" version="1.1" width="632px" height="729px" style="shape-rendering:geometricPrecision; text-rendering:geometricPrecision; image-rendering:optimizeQuality; fill-rule:evenodd; clip-rule:evenodd" xmlns:xlink="http://www.w3.org/1999/xlink">
<g><path style="opacity:0.996" fill="#0b7555" d="M 304.5,37.5 C 400.801,35.5794 479.301,71.5794 540,145.5C 595.891,221.297 611.891,304.964 588,396.5C 556.73,493.437 492.563,557.271 395.5,588C 286.317,614.67 192.151,588.504 113,509.5C 48.5381,436.338 25.8714,351.671 45,255.5C 67.4869,166.025 120.32,101.525 203.5,62C 235.88,47.9874 269.547,39.8207 304.5,37.5 Z"/></g>
<g><path style="opacity:1" fill="#0c291f" d="M 342.5,59.5 C 330.5,59.5 318.5,59.5 306.5,59.5C 306.169,83.006 306.502,106.339 307.5,129.5C 322.264,130.039 336.93,129.372 351.5,127.5C 350.158,128.793 348.491,129.626 346.5,130C 332.837,130.5 319.171,130.667 305.5,130.5C 305.5,106.5 305.5,82.5 305.5,58.5C 318.011,58.1714 330.345,58.5048 342.5,59.5 Z"/></g>
<g><path style="opacity:1" fill="#9f9f9f" d="M 342.5,59.5 C 343.167,59.5 343.5,59.8333 343.5,60.5C 331.5,60.5 319.5,60.5 307.5,60.5C 307.5,83.5 307.5,106.5 307.5,129.5C 306.502,106.339 306.169,83.006 306.5,59.5C 318.5,59.5 330.5,59.5 342.5,59.5 Z"/></g>
<g><path style="opacity:1" fill="#fafafa" d="M 343.5,60.5 C 350.616,61.7136 355.949,65.3802 359.5,71.5C 359.628,75.8814 359.295,80.2147 358.5,84.5C 357.197,86.1423 355.864,87.8089 354.5,89.5C 351.738,90.3795 349.071,91.5462 346.5,93C 348.134,93.4935 349.801,93.6602 351.5,93.5C 351.5,94.1667 351.833,94.5 352.5,94.5C 356.861,96.861 360.194,100.194 362.5,104.5C 362.5,107.833 362.5,111.167 362.5,114.5C 361.264,116.649 360.264,118.982 359.5,121.5C 356.795,123.512 354.128,125.512 351.5,127.5C 336.93,129.372 322.264,130.039 307.5,129.5C 307.5,106.5 307.5,83.5 307.5,60.5C 319.5,60.5 331.5,60.5 343.5,60.5 Z"/></g>
<g><path style="opacity:1" fill="#1f352c" d="M 253.5,77.5 C 252.21,76.9423 251.377,75.9423 251,74.5C 250.329,75.2524 249.496,75.5858 248.5,75.5C 251.137,72.7789 252.804,73.4456 253.5,77.5 Z"/></g>
<g><path style="opacity:1" fill="#192520" d="M 339.5,75.5 C 334.562,74.6076 329.562,74.2743 324.5,74.5C 324.5,78.8333 324.5,83.1667 324.5,87.5C 328.5,87.5 332.5,87.5 336.5,87.5C 332.366,88.4849 328.032,88.8182 323.5,88.5C 323.5,83.5 323.5,78.5 323.5,73.5C 328.511,73.3341 333.511,73.5007 338.5,74C 339.056,74.3826 339.389,74.8826 339.5,75.5 Z"/></g>
<g><path style="opacity:1" fill="#057353" d="M 339.5,75.5 C 341.046,77.8825 341.713,80.5491 341.5,83.5C 339.809,84.8637 338.142,86.197 336.5,87.5C 332.5,87.5 328.5,87.5 324.5,87.5C 324.5,83.1667 324.5,78.8333 324.5,74.5C 329.562,74.2743 334.562,74.6076 339.5,75.5 Z"/></g>
<g><path style="opacity:1" fill="#f7f7f7" d="M 253.5,77.5 C 254.908,80.7577 256.574,83.9244 258.5,87C 256.273,87.941 254.273,89.1077 252.5,90.5C 250.248,90.9156 248.748,92.249 248,94.5C 247.199,97.367 247.366,100.034 248.5,102.5C 253.022,111.042 257.689,119.542 262.5,128C 258.639,131.091 254.639,133.924 250.5,136.5C 248.938,136.267 247.605,135.6 246.5,134.5C 239.668,121.498 232.335,108.832 224.5,96.5C 224.249,94.8297 223.582,93.3297 222.5,92C 223.056,91.6174 223.389,91.1174 223.5,90.5C 226.331,89.9213 228.664,88.588 230.5,86.5C 232.426,85.7577 234.259,84.7577 236,83.5C 236.383,84.056 236.883,84.3893 237.5,84.5C 240.854,93.7686 242.354,93.1019 242,82.5C 243.332,80.34 244.832,78.34 246.5,76.5C 247.492,76.6716 248.158,76.3382 248.5,75.5C 249.496,75.5858 250.329,75.2524 251,74.5C 251.377,75.9423 252.21,76.9423 253.5,77.5 Z"/></g>
<g><path style="opacity:1" fill="#3c4843" d="M 246.5,76.5 C 244.832,78.34 243.332,80.34 242,82.5C 242.354,93.1019 240.854,93.7686 237.5,84.5C 238.117,84.6107 238.617,84.944 239,85.5C 240.121,81.2055 242.621,78.2055 246.5,76.5 Z"/></g>
<g><path style="opacity:1" fill="#1c2521" d="M 339.5,75.5 C 342.517,77.6154 343.184,80.282 341.5,83.5C 341.713,80.5491 341.046,77.8825 339.5,75.5 Z"/></g>
<g><path style="opacity:1" fill="#1a211e" d="M 359.5,71.5 C 360.161,73.134 360.494,74.9674 360.5,77C 360.7,79.8655 360.033,82.3655 358.5,84.5C 359.295,80.2147 359.628,75.8814 359.5,71.5 Z"/></g>
<g><path style="opacity:1" fill="#f8f8f8" d="M 394.5,80.5 C 394.842,81.3382 395.508,81.6716 396.5,81.5C 398.426,83.2927 400.759,84.2927 403.5,84.5C 403.483,86.5648 403.15,88.5648 402.5,90.5C 400.707,92.4261 399.707,94.7594 399.5,97.5C 398.662,97.8417 398.328,98.5084 398.5,99.5C 396.707,101.426 395.707,103.759 395.5,106.5C 394.662,106.842 394.328,107.508 394.5,108.5C 392.526,110.952 391.192,113.785 390.5,117C 390.525,118.876 391.191,120.376 392.5,121.5C 395.103,125.259 398.436,126.259 402.5,124.5C 406.365,123.294 408.365,120.627 408.5,116.5C 412.392,109.046 416.058,101.379 419.5,93.5C 420.7,92.7084 422.033,92.7084 423.5,93.5C 425.426,95.2927 427.759,96.2927 430.5,96.5C 430.842,97.3382 431.508,97.6716 432.5,97.5C 433.806,98.4674 434.473,99.8007 434.5,101.5C 432.707,103.426 431.707,105.759 431.5,108.5C 430.662,108.842 430.328,109.508 430.5,110.5C 428.707,112.426 427.707,114.759 427.5,117.5C 426.662,117.842 426.328,118.508 426.5,119.5C 424.707,121.426 423.707,123.759 423.5,126.5C 422.662,126.842 422.328,127.508 422.5,128.5C 420.707,130.426 419.707,132.759 419.5,135.5C 418.662,135.842 418.328,136.508 418.5,137.5C 416.707,139.426 415.707,141.759 415.5,144.5C 414.527,145.984 413.193,146.484 411.5,146C 407.833,144.333 404.167,142.667 400.5,141C 399.748,140.329 399.414,139.496 399.5,138.5C 405.262,131.361 404.595,130.194 397.5,135C 394.274,136.199 390.941,136.699 387.5,136.5C 376.497,132.296 371.997,124.296 374,112.5C 378.794,101.917 383.294,91.2499 387.5,80.5C 389.756,79.5615 392.09,79.5615 394.5,80.5 Z"/></g>
<g><path style="opacity:1" fill="#28322e" d="M 394.5,80.5 C 392.09,79.5615 389.756,79.5615 387.5,80.5C 389.656,78.0401 391.989,78.0401 394.5,80.5 Z"/></g>
<g><path style="opacity:1" fill="#243730" d="M 396.5,81.5 C 399.481,81.1824 401.815,82.1824 403.5,84.5C 400.759,84.2927 398.426,83.2927 396.5,81.5 Z"/></g>
<g><path style="opacity:1" fill="#313936" d="M 341.5,83.5 C 341.033,86.2974 339.367,87.6308 336.5,87.5C 338.142,86.197 339.809,84.8637 341.5,83.5 Z"/></g>
<g><path style="opacity:1" fill="#29332f" d="M 230.5,86.5 C 228.664,88.588 226.331,89.9213 223.5,90.5C 225.336,88.412 227.669,87.0787 230.5,86.5 Z"/></g>
<g><path style="opacity:1" fill="#1e2a25" d="M 223.5,90.5 C 223.389,91.1174 223.056,91.6174 222.5,92C 223.582,93.3297 224.249,94.8297 224.5,96.5C 222.899,95.4812 221.899,93.9812 221.5,92C 221.836,90.9701 222.503,90.4701 223.5,90.5 Z"/></g>
<g><path style="opacity:1" fill="#24312c" d="M 354.5,89.5 C 353.211,90.6366 352.211,91.9699 351.5,93.5C 349.801,93.6602 348.134,93.4935 346.5,93C 349.071,91.5462 351.738,90.3795 354.5,89.5 Z"/></g>
<g><path style="opacity:1" fill="#1f332c" d="M 252.5,90.5 C 249.075,93.7291 247.742,97.7291 248.5,102.5C 247.366,100.034 247.199,97.367 248,94.5C 248.748,92.249 250.248,90.9156 252.5,90.5 Z"/></g>
<g><path style="opacity:1" fill="#26342e" d="M 352.5,94.5 C 353.721,93.5354 355.054,93.702 356.5,95C 359.98,97.2975 361.98,100.464 362.5,104.5C 360.194,100.194 356.861,96.861 352.5,94.5 Z"/></g>
<g><path style="opacity:1" fill="#21322c" d="M 402.5,90.5 C 402.293,93.2406 401.293,95.5739 399.5,97.5C 399.707,94.7594 400.707,92.4261 402.5,90.5 Z"/></g>
<g><path style="opacity:1" fill="#22362e" d="M 423.5,93.5 C 426.481,93.1824 428.815,94.1824 430.5,96.5C 427.759,96.2927 425.426,95.2927 423.5,93.5 Z"/></g>
<g><path style="opacity:1" fill="#6a6a6a" d="M 324.5,99.5 C 324.5,104.833 324.5,110.167 324.5,115.5C 328.833,115.5 333.167,115.5 337.5,115.5C 333.03,116.486 328.363,116.819 323.5,116.5C 323.178,110.642 323.511,104.975 324.5,99.5 Z"/></g>
<g><path style="opacity:1" fill="#1c3028" d="M 432.5,97.5 C 436.91,97.3232 437.577,98.6566 434.5,101.5C 434.473,99.8007 433.806,98.4674 432.5,97.5 Z"/></g>
<g><path style="opacity:1" fill="#183127" d="M 324.5,99.5 C 329.511,99.3341 334.511,99.5007 339.5,100C 341.286,100.785 342.786,101.951 344,103.5C 344.667,106.5 344.667,109.5 344,112.5C 342.266,114.451 340.099,115.451 337.5,115.5C 333.167,115.5 328.833,115.5 324.5,115.5C 324.5,110.167 324.5,104.833 324.5,99.5 Z"/></g>
<g><path style="opacity:1" fill="#057554" d="M 325.5,100.5 C 329.846,100.334 334.179,100.501 338.5,101C 343.143,103.072 344.643,106.572 343,111.5C 342.097,112.701 340.931,113.535 339.5,114C 334.845,114.499 330.179,114.666 325.5,114.5C 325.5,109.833 325.5,105.167 325.5,100.5 Z"/></g>
<g><path style="opacity:1" fill="#3b4842" d="M 208.5,106.5 C 203.02,104.717 197.353,104.051 191.5,104.5C 195.936,102.038 200.603,101.872 205.5,104C 206.942,104.377 207.942,105.21 208.5,106.5 Z"/></g>
<g><path style="opacity:1" fill="#22352d" d="M 434.5,101.5 C 434.293,104.241 433.293,106.574 431.5,108.5C 431.707,105.759 432.707,103.426 434.5,101.5 Z"/></g>
<g><path style="opacity:1" fill="#f8f8f8" d="M 191.5,104.5 C 197.353,104.051 203.02,104.717 208.5,106.5C 215.267,116.381 222.267,126.048 229.5,135.5C 229.703,137.044 230.37,138.378 231.5,139.5C 230.807,140.518 230.141,141.518 229.5,142.5C 225.939,144.048 222.606,146.048 219.5,148.5C 218.817,148.137 218.15,147.804 217.5,147.5C 217.315,145.804 216.481,144.471 215,143.5C 214.505,145.473 214.338,147.473 214.5,149.5C 212.917,151.663 211.584,153.996 210.5,156.5C 207.825,158.17 205.159,159.836 202.5,161.5C 196.816,163.217 191.482,162.551 186.5,159.5C 186.167,158.5 185.5,157.833 184.5,157.5C 182.885,154.161 181.551,150.661 180.5,147C 180.943,145.175 181.277,143.342 181.5,141.5C 182.89,140.101 183.89,138.434 184.5,136.5C 186.5,135.167 188.167,133.5 189.5,131.5C 190.167,131.167 190.833,130.833 191.5,130.5C 196.106,128.104 198.273,124.437 198,119.5C 192.66,116.418 188.827,117.751 186.5,123.5C 185.869,125.934 184.869,128.268 183.5,130.5C 180.292,132.021 177.126,133.688 174,135.5C 172.989,134.944 172.156,134.278 171.5,133.5C 171.091,128.308 171.758,123.308 173.5,118.5C 178.64,112.69 184.64,108.023 191.5,104.5 Z"/></g>
<g><path style="opacity:1" fill="#21322c" d="M 398.5,99.5 C 398.293,102.241 397.293,104.574 395.5,106.5C 395.707,103.759 396.707,101.426 398.5,99.5 Z"/></g>
<g><path style="opacity:1" fill="#22352d" d="M 430.5,110.5 C 430.293,113.241 429.293,115.574 427.5,117.5C 427.707,114.759 428.707,112.426 430.5,110.5 Z"/></g>
<g><path style="opacity:1" fill="#1c221f" d="M 459.5,113.5 C 454.797,113.437 450.13,113.771 445.5,114.5C 448.017,113.027 450.85,112.36 454,112.5C 456.033,112.506 457.866,112.839 459.5,113.5 Z"/></g>
<g><path style="opacity:1" fill="#f7f7f7" d="M 459.5,113.5 C 463.312,114.907 466.978,116.574 470.5,118.5C 472.5,121.167 474.833,123.5 477.5,125.5C 478.38,128.262 479.546,130.929 481,133.5C 481.629,137.871 481.463,142.204 480.5,146.5C 479.416,148.319 478.082,149.985 476.5,151.5C 474.408,149.395 472.075,147.728 469.5,146.5C 467.295,144.637 465.961,142.303 465.5,139.5C 466.629,137.372 466.796,135.039 466,132.5C 465.292,131.619 464.458,130.953 463.5,130.5C 463.389,129.883 463.056,129.383 462.5,129C 459.5,128.333 456.5,128.333 453.5,129C 452.944,129.383 452.611,129.883 452.5,130.5C 449.522,131.478 447.522,133.478 446.5,136.5C 442.379,140.494 441.546,145.161 444,150.5C 444.816,151.823 445.983,152.489 447.5,152.5C 449.833,153.833 452.167,153.833 454.5,152.5C 456.117,151.962 457.784,151.629 459.5,151.5C 460.585,153.587 462.251,154.92 464.5,155.5C 465.585,157.587 467.251,158.92 469.5,159.5C 468.925,161.411 467.925,163.078 466.5,164.5C 463.515,165.326 460.849,166.659 458.5,168.5C 454.143,168.414 449.81,168.08 445.5,167.5C 443.337,165.917 441.004,164.584 438.5,163.5C 436.167,160.5 433.5,157.833 430.5,155.5C 427.85,148.791 426.85,141.791 427.5,134.5C 429.341,132.151 430.674,129.485 431.5,126.5C 435.754,122.037 440.421,118.037 445.5,114.5C 450.13,113.771 454.797,113.437 459.5,113.5 Z"/></g>
<g><path style="opacity:1" fill="#2e453c" d="M 394.5,108.5 C 392.937,112.661 392.271,116.995 392.5,121.5C 391.191,120.376 390.525,118.876 390.5,117C 391.192,113.785 392.526,110.952 394.5,108.5 Z"/></g>
<g><path style="opacity:1" fill="#263831" d="M 362.5,114.5 C 362.834,117.491 361.834,119.824 359.5,121.5C 360.264,118.982 361.264,116.649 362.5,114.5 Z"/></g>
<g><path style="opacity:1" fill="#182f26" d="M 470.5,118.5 C 473.833,119.833 476.167,122.167 477.5,125.5C 474.833,123.5 472.5,121.167 470.5,118.5 Z"/></g>
<g><path style="opacity:1" fill="#222e29" d="M 408.5,116.5 C 408.365,120.627 406.365,123.294 402.5,124.5C 404.916,122.092 406.916,119.426 408.5,116.5 Z"/></g>
<g><path style="opacity:1" fill="#22352e" d="M 426.5,119.5 C 426.293,122.241 425.293,124.574 423.5,126.5C 423.707,123.759 424.707,121.426 426.5,119.5 Z"/></g>
<g><path style="opacity:1" fill="#31403a" d="M 191.5,130.5 C 192.713,127.775 194.546,125.441 197,123.5C 197.667,122.5 197.667,121.5 197,120.5C 194.936,119.409 192.769,119.242 190.5,120C 189.295,121.376 187.962,122.542 186.5,123.5C 188.827,117.751 192.66,116.418 198,119.5C 198.273,124.437 196.106,128.104 191.5,130.5 Z"/></g>
<g><path style="opacity:1" fill="#3c413e" d="M 173.5,118.5 C 171.758,123.308 171.091,128.308 171.5,133.5C 170.355,129.689 170.188,125.689 171,121.5C 171.377,120.058 172.21,119.058 173.5,118.5 Z"/></g>
<g><path style="opacity:1" fill="#142e25" d="M 463.5,130.5 C 459.833,129.167 456.167,129.167 452.5,130.5C 452.611,129.883 452.944,129.383 453.5,129C 456.5,128.333 459.5,128.333 462.5,129C 463.056,129.383 463.389,129.883 463.5,130.5 Z"/></g>
<g><path style="opacity:1" fill="#1c2a24" d="M 186.5,123.5 C 188.753,127.244 187.753,129.577 183.5,130.5C 184.869,128.268 185.869,125.934 186.5,123.5 Z"/></g>
<g><path style="opacity:1" fill="#202e28" d="M 189.5,131.5 C 188.167,133.5 186.5,135.167 184.5,136.5C 185.167,133.833 186.833,132.167 189.5,131.5 Z"/></g>
<g><path style="opacity:1" fill="#116c4f" d="M 207.5,134.5 C 208.167,134.5 208.5,134.833 208.5,135.5C 208.595,138.692 207.929,141.692 206.5,144.5C 204.006,148.546 201.006,149.213 197.5,146.5C 196.167,144.167 196.167,141.833 197.5,139.5C 200.13,137.372 202.63,135.039 205,132.5C 205.708,133.381 206.542,134.047 207.5,134.5 Z"/></g>
<g><path style="opacity:1" fill="#25302c" d="M 431.5,126.5 C 430.674,129.485 429.341,132.151 427.5,134.5C 427.794,131.246 429.127,128.579 431.5,126.5 Z"/></g>
<g><path style="opacity:1" fill="#20352d" d="M 207.5,134.5 C 206.542,134.047 205.708,133.381 205,132.5C 202.63,135.039 200.13,137.372 197.5,139.5C 199.388,136.101 201.888,133.101 205,130.5C 206.481,131.471 207.315,132.804 207.5,134.5 Z"/></g>
<g><path style="opacity:1" fill="#23332d" d="M 422.5,128.5 C 422.293,131.241 421.293,133.574 419.5,135.5C 419.707,132.759 420.707,130.426 422.5,128.5 Z"/></g>
<g><path style="opacity:1" fill="#22342d" d="M 246.5,134.5 C 247.605,135.6 248.938,136.267 250.5,136.5C 248.246,139.004 246.912,138.337 246.5,134.5 Z"/></g>
<g><path style="opacity:1" fill="#faf8f8" d="M 302.5,135.5 C 383.017,130.673 444.85,162.007 488,229.5C 503.812,257.084 511.646,286.751 511.5,318.5C 505.708,322.239 499.375,323.405 492.5,322C 482.357,317.098 472.023,312.432 461.5,308C 449.249,304.732 446.582,308.232 453.5,318.5C 465.799,321.314 477.466,325.814 488.5,332C 496.307,335.09 504.14,335.256 512,332.5C 512.988,338.518 512.488,344.351 510.5,350C 505.833,350.667 501.167,350.667 496.5,350C 487.167,346 477.833,342 468.5,338C 465.518,337.502 462.518,337.335 459.5,337.5C 459.87,341.233 460.537,344.899 461.5,348.5C 466.018,348.97 470.351,350.137 474.5,352C 482.041,356.27 489.707,360.27 497.5,364C 501.179,364.787 504.846,365.621 508.5,366.5C 508.172,371.327 506.839,375.827 504.5,380C 500.706,380.283 497.039,379.617 493.5,378C 485.266,372.217 476.266,368.05 466.5,365.5C 465.558,365.608 464.725,365.941 464,366.5C 463.502,369.817 463.335,373.15 463.5,376.5C 467.049,376.439 470.382,377.273 473.5,379C 479.5,382.333 485.5,385.667 491.5,389C 494.353,390.43 497.353,391.263 500.5,391.5C 500.242,395.44 499.076,399.107 497,402.5C 496.196,403.804 495.029,404.471 493.5,404.5C 485.202,400.686 476.869,396.853 468.5,393C 466.527,392.505 464.527,392.338 462.5,392.5C 461.793,395.786 461.46,399.119 461.5,402.5C 463.199,402.34 464.866,402.506 466.5,403C 473.962,406.967 481.295,411.133 488.5,415.5C 489.614,416.723 489.781,418.056 489,419.5C 487.748,421.001 486.748,422.668 486,424.5C 485.044,425.894 483.711,426.561 482,426.5C 476.816,424.159 471.649,421.659 466.5,419C 463.522,418.304 460.522,417.804 457.5,417.5C 457.833,413.5 458.167,409.5 458.5,405.5C 455.15,405.665 451.817,405.498 448.5,405C 442.096,401.265 436.263,396.765 431,391.5C 430.811,386.654 429.811,381.988 428,377.5C 422,367.5 416,357.5 410,347.5C 407.612,340.686 406.945,333.686 408,326.5C 416.084,306.015 415.084,286.015 405,266.5C 402.629,263.794 399.963,261.461 397,259.5C 398.571,264.865 400.571,270.199 403,275.5C 407.024,293.656 405.357,311.322 398,328.5C 396.285,337.21 397.951,345.21 403,352.5C 410.678,362.189 416.678,372.856 421,384.5C 423.354,395.662 421.021,405.662 414,414.5C 413.009,416.447 412.675,418.447 413,420.5C 420.845,428.686 430.011,434.852 440.5,439C 448.307,440.878 452.474,437.711 453,429.5C 453.956,428.106 455.289,427.439 457,427.5C 463.742,430.359 470.242,433.692 476.5,437.5C 474.784,441.603 472.117,444.936 468.5,447.5C 464.256,445.414 459.923,443.58 455.5,442C 448.876,440.786 445.876,443.62 446.5,450.5C 460.346,451.382 462.346,456.215 452.5,465C 447.371,464.948 442.371,464.281 437.5,463C 436.152,465.01 434.818,467.01 433.5,469C 435.374,471.288 437.707,473.121 440.5,474.5C 441.521,475.002 441.688,475.668 441,476.5C 435.443,481.579 429.277,485.579 422.5,488.5C 421.908,485.309 420.741,482.309 419,479.5C 411.686,469.205 405.686,458.205 401,446.5C 400.824,443.118 400.324,439.785 399.5,436.5C 397.717,438.845 396.717,441.512 396.5,444.5C 397.11,448.486 397.61,452.486 398,456.5C 402.083,463.668 406.416,470.668 411,477.5C 413.143,482.105 414.976,486.771 416.5,491.5C 416.314,493.58 415.314,495.08 413.5,496C 410.904,497.136 408.237,497.969 405.5,498.5C 405.608,494.753 405.108,491.086 404,487.5C 397.667,476.5 391.333,465.5 385,454.5C 383.194,448.135 383.194,441.801 385,435.5C 393.406,425.024 401.073,414.024 408,402.5C 411.789,392.842 411.122,383.508 406,374.5C 401.667,368.5 397.333,362.5 393,356.5C 387.367,348.302 385.367,339.302 387,329.5C 389.677,320.819 392.343,312.153 395,303.5C 398.91,287.05 395.91,272.05 386,258.5C 383.297,255.462 380.297,252.795 377,250.5C 380.682,256.28 383.682,262.614 386,269.5C 388.932,281.076 389.265,292.742 387,304.5C 383.667,312.5 380.333,320.5 377,328.5C 376.333,333.833 376.333,339.167 377,344.5C 384.252,356.001 391.252,367.668 398,379.5C 401.59,388.333 401.257,397 397,405.5C 390.755,413.657 384.755,421.99 379,430.5C 373.879,440.198 373.212,450.198 377,460.5C 383.97,470.105 389.637,480.439 394,491.5C 394.499,495.821 394.666,500.154 394.5,504.5C 390.186,505.409 386.02,506.742 382,508.5C 383.198,501.348 382.532,494.348 380,487.5C 376.4,480.243 372.4,473.243 368,466.5C 362.781,458.188 360.448,449.188 361,439.5C 361.667,437.5 362.333,435.5 363,433.5C 369.667,424.167 376.333,414.833 383,405.5C 389.293,393.428 388.626,381.762 381,370.5C 374.827,363.989 369.827,356.656 366,348.5C 364.162,342.519 364.162,336.519 366,330.5C 370.718,317.681 375.051,304.681 379,291.5C 381.14,272.117 374.307,256.784 358.5,245.5C 373.237,262.764 376.404,282.431 368,304.5C 364.333,312.167 360.667,319.833 357,327.5C 354.476,336.788 355.142,345.788 359,354.5C 366.522,363.538 372.522,373.538 377,384.5C 378.207,391.673 376.873,398.34 373,404.5C 367.089,411.989 361.423,419.655 356,427.5C 350.165,436.678 349.165,446.345 353,456.5C 360.245,467.661 365.912,479.661 370,492.5C 371.011,499.024 370.345,505.357 368,511.5C 364.056,513.361 359.889,514.361 355.5,514.5C 359.033,501.389 357.866,488.722 352,476.5C 347.745,468.991 343.745,461.324 340,453.5C 336.261,444.489 336.927,435.822 342,427.5C 349.443,418.723 356.109,409.39 362,399.5C 365.645,391.299 365.311,383.299 361,375.5C 354.123,367.623 348.456,358.956 344,349.5C 342.278,347.556 340.111,346.556 337.5,346.5C 332.234,347.923 326.901,348.923 321.5,349.5C 315.443,348.646 309.443,347.813 303.5,347C 296.725,359.381 289.558,371.548 282,383.5C 280.491,390.757 281.825,397.423 286,403.5C 292.72,411.886 299.053,420.553 305,429.5C 308.286,438.14 308.286,446.807 305,455.5C 300.07,465.794 295.07,476.127 290,486.5C 288.256,494.145 288.09,501.812 289.5,509.5C 284.933,508.978 280.6,507.645 276.5,505.5C 274.598,497.066 275.765,489.066 280,481.5C 285.999,472.494 290.666,462.827 294,452.5C 295.622,443.319 294.289,434.653 290,426.5C 284.909,419.32 279.576,412.32 274,405.5C 268.936,396.801 268.269,387.801 272,378.5C 276.604,370.234 281.604,362.234 287,354.5C 290.291,347.164 291.291,339.498 290,331.5C 285.678,321.212 281.345,310.879 277,300.5C 269.815,281.53 272.815,264.53 286,249.5C 286.667,248.833 286.667,248.167 286,247.5C 268.436,261.572 262.77,279.572 269,301.5C 272.333,309.5 275.667,317.5 279,325.5C 282.822,335.817 282.155,345.817 277,355.5C 270.882,362.956 265.549,370.956 261,379.5C 258.542,388.43 259.209,397.096 263,405.5C 267.759,412.015 272.759,418.348 278,424.5C 285.523,433.685 287.523,444.019 284,455.5C 278.034,466.814 272.034,478.147 266,489.5C 265.38,493.221 264.547,496.888 263.5,500.5C 260.167,498.833 256.833,497.167 253.5,495.5C 252.335,492.465 252.502,489.465 254,486.5C 260.187,476.793 265.854,466.793 271,456.5C 271.667,450.167 271.667,443.833 271,437.5C 269.772,433.941 268.106,430.608 266,427.5C 258.507,419.675 252.174,411.008 247,401.5C 244.34,390.791 246.007,380.791 252,371.5C 257.723,364.109 263.056,356.443 268,348.5C 270.285,343.04 270.951,337.373 270,331.5C 267.145,322.129 263.478,313.129 259,304.5C 256.058,293.879 256.058,283.212 259,272.5C 261.701,264.431 265.367,257.098 270,250.5C 259.318,258.506 252.651,269.173 250,282.5C 249.333,288.5 249.333,294.5 250,300.5C 252.871,310.987 256.205,321.32 260,331.5C 261.556,344.835 257.222,355.835 247,364.5C 235.43,377.871 233.43,392.538 241,408.5C 248.443,417.277 255.109,426.61 261,436.5C 263,443.167 263,449.833 261,456.5C 255.061,467.584 248.561,478.251 241.5,488.5C 238.328,486.748 235.328,484.748 232.5,482.5C 238.266,473.299 243.766,463.966 249,454.5C 249.667,450.5 249.667,446.5 249,442.5C 248.74,440.382 247.74,438.716 246,437.5C 245,442.833 244,448.167 243,453.5C 238.404,462.371 233.071,470.705 227,478.5C 215.59,471.023 205.423,462.023 196.5,451.5C 197.325,450.614 198.325,450.281 199.5,450.5C 198.96,443.201 194.96,440.368 187.5,442C 184.642,438.642 181.975,435.142 179.5,431.5C 183.05,428.72 187.05,427.886 191.5,429C 193.074,432.56 194.74,436.06 196.5,439.5C 204.042,440.273 211.042,438.439 217.5,434C 223.458,429.711 229.124,425.044 234.5,420C 224.4,406.299 222.233,391.466 228,375.5C 233,367.833 238,360.167 243,352.5C 247.196,345.716 248.863,338.383 248,330.5C 246.159,323.471 244.159,316.471 242,309.5C 240.054,298.153 240.054,286.819 242,275.5C 243.722,270.388 246.222,265.721 249.5,261.5C 248.998,260.479 248.332,260.312 247.5,261C 234.237,274.209 229.404,290.042 233,308.5C 237.113,320.863 238.446,333.53 237,346.5C 230.748,356.67 224.748,367.003 219,377.5C 217.362,382.435 216.029,387.435 215,392.5C 209.38,397.45 203.213,401.616 196.5,405C 193.183,405.498 189.85,405.665 186.5,405.5C 186.724,409.179 187.058,412.846 187.5,416.5C 182.126,417.235 177.293,419.235 173,422.5C 170.376,418.752 167.876,414.919 165.5,411C 170.735,406.132 176.902,403.299 184,402.5C 184.434,399.032 183.934,395.698 182.5,392.5C 179.482,392.335 176.482,392.502 173.5,393C 169.167,395.5 164.833,398 160.5,400.5C 158.246,396.993 156.246,393.327 154.5,389.5C 162.304,382.765 171.304,378.432 181.5,376.5C 181.5,372.833 181.5,369.167 181.5,365.5C 178.126,365.674 174.793,366.174 171.5,367C 164.573,370.38 157.74,373.88 151,377.5C 150.055,377.095 149.388,376.428 149,375.5C 147.731,371.859 146.564,368.192 145.5,364.5C 154.076,360.879 162.409,356.712 170.5,352C 174.714,350.421 179.047,349.254 183.5,348.5C 185.094,345.009 185.761,341.342 185.5,337.5C 182.15,337.335 178.817,337.502 175.5,338C 168.379,341.061 161.379,344.394 154.5,348C 150.368,349.9 146.034,350.733 141.5,350.5C 140.756,345.115 139.756,339.782 138.5,334.5C 143.58,334.75 148.58,334.25 153.5,333C 163.073,329.214 172.407,324.88 181.5,320C 184.5,319.667 187.5,319.333 190.5,319C 191.416,318.626 192.25,318.126 193,317.5C 193.773,314.789 194.94,312.289 196.5,310C 196.355,309.228 196.022,308.561 195.5,308C 191.167,307.333 186.833,307.333 182.5,308C 172.357,312.902 162.023,317.568 151.5,322C 146.473,322.938 141.64,322.438 137,320.5C 134.149,298.728 136.816,277.728 145,257.5C 174.74,187.387 227.24,146.721 302.5,135.5 Z"/></g>
<g><path style="opacity:1" fill="#1c332a" d="M 399.5,138.5 C 399.649,137.448 399.483,136.448 399,135.5C 395.182,137.545 391.349,137.878 387.5,136.5C 390.941,136.699 394.274,136.199 397.5,135C 404.595,130.194 405.262,131.361 399.5,138.5 Z"/></g>
<g><path style="opacity:1" fill="#17221e" d="M 463.5,130.5 C 464.458,130.953 465.292,131.619 466,132.5C 466.796,135.039 466.629,137.372 465.5,139.5C 465.79,136.215 465.123,133.215 463.5,130.5 Z"/></g>
<g><path style="opacity:1" fill="#39413e" d="M 520.5,140.5 C 518.852,139.19 517.186,137.857 515.5,136.5C 514.817,136.863 514.15,137.196 513.5,137.5C 513.415,136.005 514.081,135.005 515.5,134.5C 517.938,135.931 519.604,137.931 520.5,140.5 Z"/></g>
<g><path style="opacity:1" fill="#f8f8f8" d="M 520.5,140.5 C 521.443,143.109 523.11,145.109 525.5,146.5C 525.608,148.514 524.942,150.18 523.5,151.5C 520.911,152.419 518.911,154.086 517.5,156.5C 514.911,157.419 512.911,159.086 511.5,161.5C 508.911,162.419 506.911,164.086 505.5,166.5C 503.114,167.373 501.114,168.873 499.5,171C 507.493,171.5 515.493,171.666 523.5,171.5C 523.833,172.5 524.5,173.167 525.5,173.5C 526.08,175.749 527.413,177.415 529.5,178.5C 530.443,181.109 532.11,183.109 534.5,184.5C 524.992,185.167 515.325,185.833 505.5,186.5C 504.691,188.071 504.357,189.738 504.5,191.5C 503.262,193.214 502.595,195.214 502.5,197.5C 500.723,200.505 499.723,203.838 499.5,207.5C 498.076,209.515 497.41,211.848 497.5,214.5C 496.207,215.842 495.374,217.509 495,219.5C 493.961,218.29 492.794,217.29 491.5,216.5C 490.581,213.911 488.914,211.911 486.5,210.5C 485.585,208.246 484.252,206.246 482.5,204.5C 483.738,202.786 484.405,200.786 484.5,198.5C 486.072,195.785 487.072,192.785 487.5,189.5C 488.234,188.292 488.567,186.959 488.5,185.5C 489.404,184.791 489.737,183.791 489.5,182.5C 485.31,182.023 482.31,183.689 480.5,187.5C 478.114,188.373 476.114,189.873 474.5,192C 473.552,192.483 472.552,192.649 471.5,192.5C 470.581,189.911 468.914,187.911 466.5,186.5C 465.92,184.251 464.587,182.585 462.5,181.5C 462.511,179.983 463.177,178.816 464.5,178C 480.864,164.492 497.197,150.992 513.5,137.5C 514.15,137.196 514.817,136.863 515.5,136.5C 517.186,137.857 518.852,139.19 520.5,140.5 Z"/></g>
<g><path style="opacity:1" fill="#22322c" d="M 229.5,135.5 C 234.215,138.368 234.215,140.701 229.5,142.5C 230.141,141.518 230.807,140.518 231.5,139.5C 230.37,138.378 229.703,137.044 229.5,135.5 Z"/></g>
<g><path style="opacity:1" fill="#2e463c" d="M 427.5,134.5 C 426.85,141.791 427.85,148.791 430.5,155.5C 427.972,153.11 426.472,150.11 426,146.5C 425.202,142.219 425.702,138.219 427.5,134.5 Z"/></g>
<g><path style="opacity:1" fill="#1d352c" d="M 520.5,140.5 C 522.86,141.865 524.527,143.865 525.5,146.5C 523.11,145.109 521.443,143.109 520.5,140.5 Z"/></g>
<g><path style="opacity:1" fill="#313f39" d="M 129.5,141.5 C 132.412,143.066 135.079,145.066 137.5,147.5C 138.622,146.37 139.956,145.703 141.5,145.5C 140.521,147.145 139.188,148.479 137.5,149.5C 134.479,147.146 131.812,144.479 129.5,141.5 Z"/></g>
<g><path style="opacity:1" fill="#243830" d="M 143.5,142.5 C 143.897,141.475 144.563,141.308 145.5,142C 148.5,145 151.5,148 154.5,151C 153.897,153.071 152.564,154.238 150.5,154.5C 151.8,153.399 152.3,152.066 152,150.5C 149.297,147.629 146.464,144.962 143.5,142.5 Z"/></g>
<g><path style="opacity:1" fill="#f8f8f8" d="M 129.5,141.5 C 131.812,144.479 134.479,147.146 137.5,149.5C 139.188,148.479 140.521,147.145 141.5,145.5C 142.167,144.5 142.833,143.5 143.5,142.5C 146.464,144.962 149.297,147.629 152,150.5C 152.3,152.066 151.8,153.399 150.5,154.5C 146.691,157.262 147.025,159.596 151.5,161.5C 154.895,165.898 158.895,169.564 163.5,172.5C 165.185,175.855 167.185,176.189 169.5,173.5C 170.531,172.645 171.697,171.978 173,171.5C 174.8,172.32 176.634,172.986 178.5,173.5C 180.367,174.76 181.7,176.427 182.5,178.5C 180.674,180.147 179.34,182.147 178.5,184.5C 176.833,185.5 175.5,186.833 174.5,188.5C 169.882,191.02 164.882,192.02 159.5,191.5C 157.14,189.147 154.473,187.147 151.5,185.5C 148.769,181.766 145.436,178.766 141.5,176.5C 141.167,175.5 140.5,174.833 139.5,174.5C 136.882,169.315 134.549,169.315 132.5,174.5C 131.448,174.649 130.448,174.483 129.5,174C 127.559,171.546 125.225,169.713 122.5,168.5C 122.5,167.5 122.5,166.5 122.5,165.5C 123.962,164.542 125.295,163.376 126.5,162C 123.919,158.912 120.919,156.412 117.5,154.5C 119.427,151.233 121.761,148.233 124.5,145.5C 125.585,143.413 127.251,142.08 129.5,141.5 Z"/></g>
<g><path style="opacity:1" fill="#16231e" d="M 197.5,139.5 C 196.167,141.833 196.167,144.167 197.5,146.5C 196.053,145.866 195.387,144.699 195.5,143C 195.387,141.301 196.053,140.134 197.5,139.5 Z"/></g>
<g><path style="opacity:1" fill="#23332d" d="M 418.5,137.5 C 418.293,140.241 417.293,142.574 415.5,144.5C 415.707,141.759 416.707,139.426 418.5,137.5 Z"/></g>
<g><path style="opacity:1" fill="#273a32" d="M 465.5,139.5 C 465.961,142.303 467.295,144.637 469.5,146.5C 467.264,145.611 465.264,144.278 463.5,142.5C 463.942,141.261 464.609,140.261 465.5,139.5 Z"/></g>
<g><path style="opacity:1" fill="#2e3632" d="M 208.5,135.5 C 210.09,138.944 209.424,141.944 206.5,144.5C 207.929,141.692 208.595,138.692 208.5,135.5 Z"/></g>
<g><path style="opacity:1" fill="#1b2d26" d="M 477.5,125.5 C 479.474,127.428 480.974,129.761 482,132.5C 482.667,136.5 482.667,140.5 482,144.5C 481.722,145.416 481.222,146.082 480.5,146.5C 481.463,142.204 481.629,137.871 481,133.5C 479.546,130.929 478.38,128.262 477.5,125.5 Z"/></g>
<g><path style="opacity:1" fill="#1b362c" d="M 181.5,141.5 C 181.277,143.342 180.943,145.175 180.5,147C 181.551,150.661 182.885,154.161 184.5,157.5C 180.469,153.744 178.969,149.077 180,143.5C 180.278,142.584 180.778,141.918 181.5,141.5 Z"/></g>
<g><path style="opacity:1" fill="#242c29" d="M 217.5,147.5 C 216.883,147.389 216.383,147.056 216,146.5C 215.768,147.737 215.268,148.737 214.5,149.5C 214.338,147.473 214.505,145.473 215,143.5C 216.481,144.471 217.315,145.804 217.5,147.5 Z"/></g>
<g><path style="opacity:1" fill="#38423e" d="M 124.5,145.5 C 121.761,148.233 119.427,151.233 117.5,154.5C 116.427,153.749 116.26,152.749 117,151.5C 119.106,148.882 121.606,146.882 124.5,145.5 Z"/></g>
<g><path style="opacity:1" fill="#0e7857" d="M 321.5,148.5 C 322.496,148.414 323.329,148.748 324,149.5C 327.124,155.708 329.958,162.041 332.5,168.5C 340.073,170.138 347.74,170.805 355.5,170.5C 355.649,171.552 355.483,172.552 355,173.5C 348.821,178.346 343.321,183.846 338.5,190C 341.333,196.5 344.167,203 347,209.5C 347.718,210.451 348.551,210.617 349.5,210C 360.086,201.805 371.919,196.305 385,193.5C 386.167,193.833 387.333,194.167 388.5,194.5C 384.854,201.766 382.854,209.432 382.5,217.5C 389.007,215.917 395.341,213.75 401.5,211C 404.554,210.179 407.554,210.345 410.5,211.5C 406.066,218.703 401.9,226.036 398,233.5C 396.002,238.659 394.835,243.992 394.5,249.5C 377.769,242.482 360.436,237.315 342.5,234C 310.846,230.698 280.846,236.198 252.5,250.5C 249.056,236.446 243.056,223.613 234.5,212C 237.5,211.333 240.5,211.333 243.5,212C 250.1,214.472 256.767,216.639 263.5,218.5C 263.219,214.812 262.719,211.145 262,207.5C 259.87,202.913 258.037,198.247 256.5,193.5C 270.539,196.353 283.206,202.186 294.5,211C 295.5,211.667 296.5,211.667 297.5,211C 301.553,204.151 304.553,196.818 306.5,189C 301.323,183.49 295.823,178.323 290,173.5C 289.517,172.552 289.351,171.552 289.5,170.5C 297.167,170.5 304.833,170.5 312.5,170.5C 315.115,162.984 318.115,155.651 321.5,148.5 Z"/></g>
<g><path style="opacity:1" fill="#1d2f28" d="M 446.5,136.5 C 445.308,139.408 444.308,142.408 443.5,145.5C 444.071,148.313 445.404,150.646 447.5,152.5C 445.983,152.489 444.816,151.823 444,150.5C 441.546,145.161 442.379,140.494 446.5,136.5 Z"/></g>
<g><path style="opacity:1" fill="#2b3632" d="M 459.5,151.5 C 457.784,151.629 456.117,151.962 454.5,152.5C 455.877,149.274 457.543,148.941 459.5,151.5 Z"/></g>
<g><path style="opacity:1" fill="#20342c" d="M 459.5,151.5 C 461.749,152.08 463.415,153.413 464.5,155.5C 462.251,154.92 460.585,153.587 459.5,151.5 Z"/></g>
<g><path style="opacity:1" fill="#21352d" d="M 214.5,149.5 C 214.445,152.614 213.112,154.948 210.5,156.5C 211.584,153.996 212.917,151.663 214.5,149.5 Z"/></g>
<g><path style="opacity:1" fill="#163228" d="M 523.5,151.5 C 522.089,153.914 520.089,155.581 517.5,156.5C 518.911,154.086 520.911,152.419 523.5,151.5 Z"/></g>
<g><path style="opacity:1" fill="#1e352c" d="M 464.5,155.5 C 466.749,156.08 468.415,157.413 469.5,159.5C 467.251,158.92 465.585,157.587 464.5,155.5 Z"/></g>
<g><path style="opacity:1" fill="#22352e" d="M 430.5,155.5 C 433.5,157.833 436.167,160.5 438.5,163.5C 434.833,161.833 432.167,159.167 430.5,155.5 Z"/></g>
<g><path style="opacity:1" fill="#163228" d="M 517.5,156.5 C 516.089,158.914 514.089,160.581 511.5,161.5C 512.911,159.086 514.911,157.419 517.5,156.5 Z"/></g>
<g><path style="opacity:1" fill="#1d342b" d="M 186.5,159.5 C 191.482,162.551 196.816,163.217 202.5,161.5C 197.665,164.054 192.665,164.054 187.5,161.5C 186.702,161.043 186.369,160.376 186.5,159.5 Z"/></g>
<g><path style="opacity:1" fill="#283a32" d="M 151.5,161.5 C 156.105,164.436 160.105,168.102 163.5,172.5C 158.895,169.564 154.895,165.898 151.5,161.5 Z"/></g>
<g><path style="opacity:1" fill="#24342d" d="M 117.5,154.5 C 120.919,156.412 123.919,158.912 126.5,162C 125.295,163.376 123.962,164.542 122.5,165.5C 122.511,163.983 123.177,162.816 124.5,162C 121.912,159.584 119.578,157.084 117.5,154.5 Z"/></g>
<g><path style="opacity:1" fill="#163228" d="M 511.5,161.5 C 510.089,163.914 508.089,165.581 505.5,166.5C 506.911,164.086 508.911,162.419 511.5,161.5 Z"/></g>
<g><path style="opacity:1" fill="#1f342c" d="M 466.5,164.5 C 464.421,166.873 461.754,168.206 458.5,168.5C 460.849,166.659 463.515,165.326 466.5,164.5 Z"/></g>
<g><path style="opacity:1" fill="#1a2e27" d="M 445.5,167.5 C 449.81,168.08 454.143,168.414 458.5,168.5C 457.036,169.16 455.369,169.493 453.5,169.5C 450.514,169.618 447.848,168.952 445.5,167.5 Z"/></g>
<g><path style="opacity:1" fill="#293b34" d="M 122.5,168.5 C 125.225,169.713 127.559,171.546 129.5,174C 130.448,174.483 131.448,174.649 132.5,174.5C 131.998,176.085 130.998,176.585 129.5,176C 126.912,173.584 124.578,171.084 122.5,168.5 Z"/></g>
<g><path style="opacity:1" fill="#0e231c" d="M 505.5,166.5 C 504.71,167.794 503.71,168.961 502.5,170C 509.679,170.171 516.679,170.671 523.5,171.5C 515.493,171.666 507.493,171.5 499.5,171C 501.114,168.873 503.114,167.373 505.5,166.5 Z"/></g>
<g><path style="opacity:1" fill="#1c3129" d="M 139.5,174.5 C 137.956,174.297 136.622,173.63 135.5,172.5C 134.482,173.193 133.482,173.859 132.5,174.5C 134.549,169.315 136.882,169.315 139.5,174.5 Z"/></g>
<g><path style="opacity:1" fill="#323f39" d="M 178.5,173.5 C 176.634,172.986 174.8,172.32 173,171.5C 171.697,171.978 170.531,172.645 169.5,173.5C 169.559,171.278 170.725,170.278 173,170.5C 175.399,170.613 177.232,171.613 178.5,173.5 Z"/></g>
<g><path style="opacity:1" fill="#27352f" d="M 525.5,173.5 C 527.587,174.585 528.92,176.251 529.5,178.5C 527.413,177.415 526.08,175.749 525.5,173.5 Z"/></g>
<g><path style="opacity:1" fill="#263b33" d="M 141.5,176.5 C 145.436,178.766 148.769,181.766 151.5,185.5C 147.518,183.183 144.185,180.183 141.5,176.5 Z"/></g>
<g><path style="opacity:1" fill="#353b39" d="M 99.5,183.5 C 101.304,182.838 103.304,182.505 105.5,182.5C 108.814,182.343 111.814,183.009 114.5,184.5C 109.537,183.746 104.537,183.413 99.5,183.5 Z"/></g>
<g><path style="opacity:1" fill="#1f332c" d="M 182.5,178.5 C 182.155,181.198 180.822,183.198 178.5,184.5C 179.34,182.147 180.674,180.147 182.5,178.5 Z"/></g>
<g><path style="opacity:1" fill="#20332c" d="M 462.5,181.5 C 464.587,182.585 465.92,184.251 466.5,186.5C 464.413,185.415 463.08,183.749 462.5,181.5 Z"/></g>
<g><path style="opacity:1" fill="#f8f8f8" d="M 99.5,183.5 C 104.537,183.413 109.537,183.746 114.5,184.5C 114.5,185.5 114.5,186.5 114.5,187.5C 111.46,190.914 109.46,194.914 108.5,199.5C 97.8078,199.371 93.3078,204.704 95,215.5C 96.731,218.302 98.8976,218.969 101.5,217.5C 104.089,216.581 106.089,214.914 107.5,212.5C 109.587,211.415 110.92,209.749 111.5,207.5C 112.167,207.5 112.5,207.167 112.5,206.5C 115.167,204.5 117.5,202.167 119.5,199.5C 129.915,193.396 139.582,194.396 148.5,202.5C 151.196,208.84 152.196,215.507 151.5,222.5C 149.853,226.424 148.186,230.424 146.5,234.5C 144.674,236.147 143.34,238.147 142.5,240.5C 135.156,248.833 126.156,251.333 115.5,248C 114.572,247.612 113.905,246.945 113.5,246C 115.649,241.537 117.649,237.037 119.5,232.5C 121.342,232.723 123.175,233.057 125,233.5C 127.399,233.387 129.232,232.387 130.5,230.5C 131.5,230.167 132.167,229.5 132.5,228.5C 134.539,227.089 135.539,225.089 135.5,222.5C 136.833,220.167 136.833,217.833 135.5,215.5C 134.892,213.01 133.225,211.676 130.5,211.5C 127.56,212.772 125.227,214.772 123.5,217.5C 121.086,218.911 119.419,220.911 118.5,223.5C 115.167,226.167 112.167,229.167 109.5,232.5C 104.47,234.95 99.1363,235.95 93.5,235.5C 91.8185,233.992 89.8185,232.992 87.5,232.5C 86.1667,230.5 84.5,228.833 82.5,227.5C 81.7362,224.982 80.7362,222.649 79.5,220.5C 79.2678,214.384 79.9345,208.384 81.5,202.5C 83.0075,200.819 84.0075,198.819 84.5,196.5C 85.9063,196.027 86.573,195.027 86.5,193.5C 89.1667,191.5 91.5,189.167 93.5,186.5C 95.8185,186.008 97.8185,185.008 99.5,183.5 Z"/></g>
<g><path style="opacity:1" fill="#264035" d="M 488.5,185.5 C 488.083,184.876 487.416,184.543 486.5,184.5C 484.489,185.519 482.489,186.519 480.5,187.5C 482.31,183.689 485.31,182.023 489.5,182.5C 489.737,183.791 489.404,184.791 488.5,185.5 Z"/></g>
<g><path style="opacity:1" fill="#304d41" d="M 534.5,184.5 C 535.627,185.122 536.627,185.955 537.5,187C 527.167,187.333 516.833,187.667 506.5,188C 505.915,189.302 505.249,190.469 504.5,191.5C 504.357,189.738 504.691,188.071 505.5,186.5C 515.325,185.833 524.992,185.167 534.5,184.5 Z"/></g>
<g><path style="opacity:1" fill="#1d322a" d="M 466.5,186.5 C 468.914,187.911 470.581,189.911 471.5,192.5C 469.086,191.089 467.419,189.089 466.5,186.5 Z"/></g>
<g><path style="opacity:1" fill="#404744" d="M 93.5,186.5 C 91.5,189.167 89.1667,191.5 86.5,193.5C 87.8333,190.167 90.1667,187.833 93.5,186.5 Z"/></g>
<g><path style="opacity:1" fill="#2e3935" d="M 174.5,188.5 C 173.547,190.61 171.881,191.777 169.5,192C 165.973,192.808 162.64,192.641 159.5,191.5C 164.882,192.02 169.882,191.02 174.5,188.5 Z"/></g>
<g><path style="opacity:1" fill="#2c3733" d="M 114.5,187.5 C 113.008,191.818 111.008,195.818 108.5,199.5C 109.46,194.914 111.46,190.914 114.5,187.5 Z"/></g>
<g><path style="opacity:1" fill="#162b23" d="M 487.5,189.5 C 487.072,192.785 486.072,195.785 484.5,198.5C 484.528,195.084 485.528,192.084 487.5,189.5 Z"/></g>
<g><path style="opacity:1" fill="#2b3631" d="M 84.5,196.5 C 84.0075,198.819 83.0075,200.819 81.5,202.5C 81.461,199.911 82.461,197.911 84.5,196.5 Z"/></g>
<g><path style="opacity:1" fill="#25322d" d="M 502.5,197.5 C 502.277,201.162 501.277,204.495 499.5,207.5C 499.723,203.838 500.723,200.505 502.5,197.5 Z"/></g>
<g><path style="opacity:1" fill="#333e3a" d="M 119.5,199.5 C 117.5,202.167 115.167,204.5 112.5,206.5C 113.833,203.167 116.167,200.833 119.5,199.5 Z"/></g>
<g><path style="opacity:1" fill="#2d3e37" d="M 148.5,202.5 C 153.625,208.579 154.625,215.246 151.5,222.5C 152.196,215.507 151.196,208.84 148.5,202.5 Z"/></g>
<g><path style="opacity:1" fill="#f5f5f4" d="M 319.5,202.5 C 327.449,204.901 334.282,209.234 340,215.5C 340.667,216.167 340.667,216.833 340,217.5C 328.576,218.654 317.076,218.82 305.5,218C 304.483,216.951 304.316,215.784 305,214.5C 310.315,211.013 315.148,207.013 319.5,202.5 Z"/></g>
<g><path style="opacity:1" fill="#1c352c" d="M 482.5,204.5 C 484.252,206.246 485.585,208.246 486.5,210.5C 484.871,209.375 483.371,208.041 482,206.5C 481.308,205.563 481.475,204.897 482.5,204.5 Z"/></g>
<g><path style="opacity:1" fill="#f8f8f8" d="M 543.5,208.5 C 545.5,211.167 547.833,213.5 550.5,215.5C 552.926,220.02 555.093,224.687 557,229.5C 557.629,233.871 557.463,238.204 556.5,242.5C 554.882,244.785 552.882,246.785 550.5,248.5C 547.709,244.418 545.042,240.251 542.5,236C 543.252,235.329 543.586,234.496 543.5,233.5C 545.259,229.436 544.259,226.103 540.5,223.5C 537.307,220.626 535.307,221.459 534.5,226C 534.528,227.07 534.861,227.903 535.5,228.5C 535.747,231.854 536.747,234.854 538.5,237.5C 541.914,245.531 540.914,252.864 535.5,259.5C 524.678,263.683 515.844,261.017 509,251.5C 503.575,244.057 501.075,235.723 501.5,226.5C 503.069,223.423 505.236,220.756 508,218.5C 511.004,222.008 513.837,225.674 516.5,229.5C 516.134,231.905 515.467,234.238 514.5,236.5C 514.668,238.171 515.335,239.504 516.5,240.5C 516.328,241.492 516.662,242.158 517.5,242.5C 518.895,246.111 521.395,247.111 525,245.5C 525.962,241.027 525.129,237.027 522.5,233.5C 521.87,229.952 520.87,226.619 519.5,223.5C 519.704,220.482 520.037,217.482 520.5,214.5C 526.419,206.326 534.086,204.326 543.5,208.5 Z"/></g>
<g><path style="opacity:1" fill="#24352e" d="M 543.5,208.5 C 546.833,209.833 549.167,212.167 550.5,215.5C 547.833,213.5 545.5,211.167 543.5,208.5 Z"/></g>
<g><path style="opacity:1" fill="#28342f" d="M 111.5,207.5 C 110.92,209.749 109.587,211.415 107.5,212.5C 108.08,210.251 109.413,208.585 111.5,207.5 Z"/></g>
<g><path style="opacity:1" fill="#1d322a" d="M 108.5,199.5 C 99.5316,200.314 95.3649,205.314 96,214.5C 97.2635,216.607 99.0968,217.607 101.5,217.5C 98.8976,218.969 96.731,218.302 95,215.5C 93.3078,204.704 97.8078,199.371 108.5,199.5 Z"/></g>
<g><path style="opacity:1" fill="#1d352c" d="M 486.5,210.5 C 488.914,211.911 490.581,213.911 491.5,216.5C 489.086,215.089 487.419,213.089 486.5,210.5 Z"/></g>
<g><path style="opacity:1" fill="#0f1b16" d="M 81.5,202.5 C 79.9345,208.384 79.2678,214.384 79.5,220.5C 78.3547,216.689 78.1881,212.689 79,208.5C 79.2401,206.148 80.0735,204.148 81.5,202.5 Z"/></g>
<g><path style="opacity:1" fill="#214337" d="M 135.5,215.5 C 134.333,214.185 132.833,213.519 131,213.5C 128.378,214.625 125.878,215.959 123.5,217.5C 125.227,214.772 127.56,212.772 130.5,211.5C 133.225,211.676 134.892,213.01 135.5,215.5 Z"/></g>
<g><path style="opacity:1" fill="#1c2e27" d="M 550.5,215.5 C 557.285,222.369 559.785,230.702 558,240.5C 557.722,241.416 557.222,242.082 556.5,242.5C 557.463,238.204 557.629,233.871 557,229.5C 555.093,224.687 552.926,220.02 550.5,215.5 Z"/></g>
<g><path style="opacity:1" fill="#1b332a" d="M 520.5,214.5 C 520.037,217.482 519.704,220.482 519.5,223.5C 518.848,222.551 518.514,221.385 518.5,220C 518.393,217.779 519.06,215.946 520.5,214.5 Z"/></g>
<g><path style="opacity:1" fill="#162f26" d="M 497.5,214.5 C 496.999,222.419 494.999,223.086 491.5,216.5C 492.794,217.29 493.961,218.29 495,219.5C 495.374,217.509 496.207,215.842 497.5,214.5 Z"/></g>
<g><path style="opacity:1" fill="#1d352c" d="M 123.5,217.5 C 122.581,220.089 120.914,222.089 118.5,223.5C 119.419,220.911 121.086,218.911 123.5,217.5 Z"/></g>
<g><path style="opacity:1" fill="#212d28" d="M 135.5,222.5 C 135.539,225.089 134.539,227.089 132.5,228.5C 132.992,226.181 133.992,224.181 135.5,222.5 Z"/></g>
<g><path style="opacity:1" fill="#0e7857" d="M 170.5,225.5 C 177.3,228.453 182.8,233.12 187,239.5C 190.312,246.129 192.479,253.129 193.5,260.5C 201.578,256.898 209.911,254.064 218.5,252C 222.833,251.333 227.167,251.333 231.5,252C 235.005,252.657 238.005,254.157 240.5,256.5C 227.221,265.779 215.888,277.112 206.5,290.5C 200.193,291.331 193.859,291.831 187.5,292C 177.052,296.057 166.718,300.391 156.5,305C 152.5,305.667 148.5,305.667 144.5,305C 142.998,304.417 141.665,303.584 140.5,302.5C 146.667,292.833 152.833,283.167 159,273.5C 167.853,258.724 171.686,242.724 170.5,225.5 Z"/></g>
<g><path style="opacity:1" fill="#1e2f28" d="M 540.5,223.5 C 544.259,226.103 545.259,229.436 543.5,233.5C 543.631,229.779 542.631,226.446 540.5,223.5 Z"/></g>
<g><path style="opacity:1" fill="#0e7857" d="M 471.5,226.5 C 473.199,226.34 474.866,226.506 476.5,227C 474.981,240.669 477.148,253.835 483,266.5C 489.499,278.168 496.499,289.502 504,300.5C 504.45,303.064 503.284,304.564 500.5,305C 496.167,305.667 491.833,305.667 487.5,305C 478.853,301.036 470.186,297.036 461.5,293C 454.193,292.05 446.86,291.383 439.5,291C 430.811,276.978 419.478,265.645 405.5,257C 406.154,255.013 407.487,253.68 409.5,253C 424.448,250.362 438.281,253.195 451,261.5C 453.01,252.145 456.677,243.478 462,235.5C 465.062,232.268 468.229,229.268 471.5,226.5 Z"/></g>
<g><path style="opacity:1" fill="#1a3027" d="M 82.5,227.5 C 84.5,228.833 86.1667,230.5 87.5,232.5C 84.8333,231.833 83.1667,230.167 82.5,227.5 Z"/></g>
<g><path style="opacity:1" fill="#18332a" d="M 118.5,223.5 C 116.5,227.5 113.5,230.5 109.5,232.5C 112.167,229.167 115.167,226.167 118.5,223.5 Z"/></g>
<g><path style="opacity:1" fill="#1d312a" d="M 519.5,223.5 C 520.87,226.619 521.87,229.952 522.5,233.5C 520.024,230.712 519.024,227.378 519.5,223.5 Z"/></g>
<g><path style="opacity:1" fill="#254337" d="M 130.5,230.5 C 129.232,232.387 127.399,233.387 125,233.5C 123.175,233.057 121.342,232.723 119.5,232.5C 123.021,231.693 126.688,231.026 130.5,230.5 Z"/></g>
<g><path style="opacity:1" fill="#2b3732" d="M 87.5,232.5 C 89.8185,232.992 91.8185,233.992 93.5,235.5C 90.911,235.539 88.911,234.539 87.5,232.5 Z"/></g>
<g><path style="opacity:1" fill="#2c4239" d="M 516.5,229.5 C 518.852,230.543 519.019,231.876 517,233.5C 516.503,235.81 516.337,238.143 516.5,240.5C 515.335,239.504 514.668,238.171 514.5,236.5C 515.467,234.238 516.134,231.905 516.5,229.5 Z"/></g>
<g><path style="opacity:1" fill="#25362f" d="M 535.5,228.5 C 537.253,231.146 538.253,234.146 538.5,237.5C 536.747,234.854 535.747,231.854 535.5,228.5 Z"/></g>
<g><path style="opacity:1" fill="#232d29" d="M 109.5,232.5 C 108.025,234.41 106.025,235.576 103.5,236C 99.9733,236.808 96.6399,236.641 93.5,235.5C 99.1363,235.95 104.47,234.95 109.5,232.5 Z"/></g>
<g><path style="opacity:1" fill="#1f332c" d="M 146.5,234.5 C 146.155,237.198 144.822,239.198 142.5,240.5C 143.34,238.147 144.674,236.147 146.5,234.5 Z"/></g>
<g><path style="opacity:1" fill="#0d7857" d="M 311.5,241.5 C 321.979,240.904 332.313,241.737 342.5,244C 351.933,247.263 357.599,253.763 359.5,263.5C 351.035,261.844 342.702,262.344 334.5,265C 327.156,269.536 324.656,276.036 327,284.5C 327.045,287.334 327.879,289.834 329.5,292C 330.167,292.667 330.833,292.667 331.5,292C 333.199,289.69 335.199,287.857 337.5,286.5C 343.167,287.833 348.833,287.833 354.5,286.5C 358.011,287.669 359.677,290.169 359.5,294C 357.878,305.875 353.711,316.708 347,326.5C 334.956,340.948 320.79,343.448 304.5,334C 289.677,321.405 284.01,305.738 287.5,287C 290.72,286.843 293.887,287.343 297,288.5C 302.109,286.089 307.109,286.089 312,288.5C 315.593,286.647 317.093,283.647 316.5,279.5C 316.217,275.804 315.717,272.137 315,268.5C 311.845,265.333 308.012,263.499 303.5,263C 298.511,262.501 293.511,262.334 288.5,262.5C 289.263,255.159 292.93,249.659 299.5,246C 303.503,244.151 307.503,242.651 311.5,241.5 Z"/></g>
<g><path style="opacity:1" fill="#24332d" d="M 501.5,226.5 C 501.075,235.723 503.575,244.057 509,251.5C 515.844,261.017 524.678,263.683 535.5,259.5C 534.653,260.966 533.32,261.8 531.5,262C 521.74,263.706 513.907,260.54 508,252.5C 501.961,244.594 499.794,235.927 501.5,226.5 Z"/></g>
<g><path style="opacity:1" fill="#31453c" d="M 522.5,233.5 C 525.129,237.027 525.962,241.027 525,245.5C 521.395,247.111 518.895,246.111 517.5,242.5C 519.591,243.865 521.924,244.532 524.5,244.5C 524.249,240.751 523.583,237.085 522.5,233.5 Z"/></g>
<g><path style="opacity:1" fill="#258162" d="M 289.5,270.5 C 296.917,269.508 302.917,271.841 307.5,277.5C 307,277.833 306.5,278.167 306,278.5C 299.543,275.575 293.376,275.908 287.5,279.5C 287.065,276.162 287.732,273.162 289.5,270.5 Z"/></g>
<g><path style="opacity:1" fill="#227f61" d="M 345.5,271.5 C 349.637,271.146 353.637,271.646 357.5,273C 358.406,274.699 358.739,276.533 358.5,278.5C 354.174,277.837 349.841,277.171 345.5,276.5C 342.803,276.703 340.136,277.036 337.5,277.5C 337.297,275.61 337.963,274.11 339.5,273C 341.708,272.809 343.708,272.309 345.5,271.5 Z"/></g>
<g><path style="opacity:1" fill="#f7fbfa" d="M 91.5,282.5 C 92.5,282.5 93.5,282.5 94.5,282.5C 94.1718,287.875 94.5052,293.208 95.5,298.5C 100.037,300.121 104.371,302.121 108.5,304.5C 103.898,306.163 99.2314,307.83 94.5,309.5C 93.1424,314.748 92.1424,320.082 91.5,325.5C 88.1491,321.978 85.1491,318.144 82.5,314C 77.0394,313.863 71.7061,314.696 66.5,316.5C 68.426,311.385 71.426,306.885 75.5,303C 72.4087,298.31 69.7421,293.477 67.5,288.5C 72.4104,289.859 77.2438,291.526 82,293.5C 85.7265,290.277 88.8932,286.61 91.5,282.5 Z"/></g>
<g><path style="opacity:1" fill="#f9fbfb" d="M 566.5,296.5 C 568.45,301.735 569.117,307.402 568.5,313.5C 573.817,314.716 578.817,316.716 583.5,319.5C 578.446,321.962 573.113,323.629 567.5,324.5C 567.666,329.844 567.499,335.177 567,340.5C 566.586,340.957 566.086,341.291 565.5,341.5C 562.377,337.422 559.377,333.255 556.5,329C 551.215,329.754 545.882,330.588 540.5,331.5C 540.351,330.448 540.517,329.448 541,328.5C 544.198,325.257 547.031,321.757 549.5,318C 546.714,313.599 544.047,309.099 541.5,304.5C 542,304.167 542.5,303.833 543,303.5C 547.461,305.265 551.961,306.932 556.5,308.5C 560.308,304.878 563.641,300.878 566.5,296.5 Z"/></g>
<g><path style="opacity:1" fill="#eaefed" d="M 317.5,299.5 C 321.182,299.335 324.848,299.501 328.5,300C 331.249,302.19 330.915,303.857 327.5,305C 323.179,305.499 318.846,305.666 314.5,305.5C 314.028,302.642 315.028,300.642 317.5,299.5 Z"/></g>
<g><path style="opacity:1" fill="#f3f5f3" d="M 307.5,313.5 C 317.522,313.168 327.522,313.501 337.5,314.5C 328.517,328.295 318.684,328.962 308,316.5C 307.517,315.552 307.351,314.552 307.5,313.5 Z"/></g>
<g><path style="opacity:1" fill="#f7fbfa" d="M 98.5,352.5 C 99.5,352.5 100.5,352.5 101.5,352.5C 101.172,357.875 101.505,363.208 102.5,368.5C 107.037,370.121 111.371,372.121 115.5,374.5C 110.898,376.163 106.231,377.83 101.5,379.5C 100.142,384.748 99.1424,390.082 98.5,395.5C 95.1491,391.978 92.1491,388.144 89.5,384C 84.0394,383.863 78.7061,384.696 73.5,386.5C 75.426,381.385 78.426,376.885 82.5,373C 79.4087,368.31 76.7421,363.477 74.5,358.5C 79.4104,359.859 84.2438,361.526 89,363.5C 92.7265,360.277 95.8932,356.61 98.5,352.5 Z"/></g>
<g><path style="opacity:1" fill="#f9fbfb" d="M 551.5,365.5 C 553.45,370.735 554.117,376.402 553.5,382.5C 558.817,383.716 563.817,385.716 568.5,388.5C 563.446,390.962 558.113,392.629 552.5,393.5C 552.666,398.844 552.499,404.177 552,409.5C 551.586,409.957 551.086,410.291 550.5,410.5C 547.377,406.422 544.377,402.255 541.5,398C 536.215,398.754 530.882,399.588 525.5,400.5C 525.351,399.448 525.517,398.448 526,397.5C 529.198,394.257 532.031,390.757 534.5,387C 531.714,382.599 529.047,378.099 526.5,373.5C 527,373.167 527.5,372.833 528,372.5C 532.461,374.265 536.961,375.932 541.5,377.5C 545.308,373.878 548.641,369.878 551.5,365.5 Z"/></g>
<g><path style="opacity:1" fill="#f7fbfa" d="M 129.5,415.5 C 130.5,415.5 131.5,415.5 132.5,415.5C 132.172,420.875 132.505,426.208 133.5,431.5C 138.037,433.121 142.371,435.121 146.5,437.5C 141.898,439.163 137.231,440.83 132.5,442.5C 131.142,447.748 130.142,453.082 129.5,458.5C 126.149,454.978 123.149,451.144 120.5,447C 115.039,446.863 109.706,447.696 104.5,449.5C 106.426,444.385 109.426,439.885 113.5,436C 110.409,431.31 107.742,426.477 105.5,421.5C 110.41,422.859 115.244,424.526 120,426.5C 123.727,423.277 126.893,419.61 129.5,415.5 Z"/></g>
<g><path style="opacity:1" fill="#f7fbfa" d="M 520.5,430.5 C 521.5,430.5 522.5,430.5 523.5,430.5C 523.172,435.875 523.505,441.208 524.5,446.5C 529.037,448.121 533.371,450.121 537.5,452.5C 532.898,454.163 528.231,455.83 523.5,457.5C 522.142,462.748 521.142,468.082 520.5,473.5C 517.149,469.978 514.149,466.144 511.5,462C 506.039,461.863 500.706,462.696 495.5,464.5C 497.426,459.385 500.426,454.885 504.5,451C 501.409,446.31 498.742,441.477 496.5,436.5C 501.41,437.859 506.244,439.526 511,441.5C 514.727,438.277 517.893,434.61 520.5,430.5 Z"/></g>
<g><path style="opacity:1" fill="#20342c" d="M 202.5,465.5 C 205.37,466.433 207.704,468.1 209.5,470.5C 206.63,469.567 204.296,467.9 202.5,465.5 Z"/></g>
<g><path style="opacity:1" fill="#fbfbfb" d="M 202.5,465.5 C 204.296,467.9 206.63,469.567 209.5,470.5C 211.55,472.547 213.883,474.214 216.5,475.5C 217.018,476.577 217.352,477.744 217.5,479C 214.5,492.667 211.5,506.333 208.5,520C 209.917,522.723 211.584,522.556 213.5,519.5C 224.877,512.39 236.377,505.39 248,498.5C 253.598,501.761 258.931,505.428 264,509.5C 263.866,511.189 263.366,512.856 262.5,514.5C 260.1,516.296 258.433,518.63 257.5,521.5C 253.06,526.278 249.393,531.612 246.5,537.5C 244.1,539.296 242.433,541.63 241.5,544.5C 240.094,544.973 239.427,545.973 239.5,547.5C 237.1,549.296 235.433,551.63 234.5,554.5C 232.674,556.147 231.34,558.147 230.5,560.5C 228.507,562.467 226.507,564.467 224.5,566.5C 223.378,565.37 222.044,564.703 220.5,564.5C 218.853,562.674 216.853,561.34 214.5,560.5C 213.859,559.518 213.193,558.518 212.5,557.5C 214.445,554.607 216.111,551.607 217.5,548.5C 221.94,543.722 225.607,538.388 228.5,532.5C 231.302,529.524 233.969,526.358 236.5,523C 233.27,523.375 230.603,524.875 228.5,527.5C 218.053,533.896 207.72,540.563 197.5,547.5C 195.113,545.311 192.447,543.644 189.5,542.5C 190.493,536.513 191.493,530.513 192.5,524.5C 193.451,523.081 193.784,521.415 193.5,519.5C 196.153,512.077 197.986,504.41 199,496.5C 196.642,499.222 194.809,502.222 193.5,505.5C 191.674,507.147 190.34,509.147 189.5,511.5C 187.1,513.296 185.433,515.63 184.5,518.5C 183.094,518.973 182.427,519.973 182.5,521.5C 180.1,523.296 178.433,525.63 177.5,528.5C 176.288,529.23 175.288,530.23 174.5,531.5C 169.992,528.747 165.659,525.747 161.5,522.5C 165.282,517.398 168.616,512.064 171.5,506.5C 173.9,504.704 175.567,502.37 176.5,499.5C 179.605,496.725 181.938,493.392 183.5,489.5C 187.94,484.722 191.607,479.388 194.5,473.5C 196.9,471.704 198.567,469.37 199.5,466.5C 200.391,465.89 201.391,465.557 202.5,465.5 Z"/></g>
<g><path style="opacity:1" fill="#2c3833" d="M 199.5,466.5 C 198.567,469.37 196.9,471.704 194.5,473.5C 195.433,470.63 197.1,468.296 199.5,466.5 Z"/></g>
<g><path style="opacity:1" fill="#333c38" d="M 183.5,489.5 C 181.938,493.392 179.605,496.725 176.5,499.5C 178.062,495.608 180.395,492.275 183.5,489.5 Z"/></g>
<g><path style="opacity:1" fill="#253c33" d="M 216.5,475.5 C 217.995,475.415 218.995,476.081 219.5,477.5C 215.855,491.371 212.855,505.371 210.5,519.5C 211.5,519.5 212.5,519.5 213.5,519.5C 211.584,522.556 209.917,522.723 208.5,520C 211.5,506.333 214.5,492.667 217.5,479C 217.352,477.744 217.018,476.577 216.5,475.5 Z"/></g>
<g><path style="opacity:1" fill="#fafafa" d="M 449.5,541.5 C 449.707,544.241 450.707,546.574 452.5,548.5C 449.833,550.167 447.167,551.833 444.5,553.5C 442.323,553.586 440.323,554.253 438.5,555.5C 436.747,552.995 435.247,550.329 434,547.5C 433.506,549.134 433.34,550.801 433.5,552.5C 431.847,555.131 430.181,557.797 428.5,560.5C 426.566,561.11 424.899,562.11 423.5,563.5C 418.167,564.833 412.833,564.833 407.5,563.5C 404.528,561.359 402.028,558.692 400,555.5C 395.304,544.608 390.471,533.774 385.5,523C 389.573,519.966 393.906,517.466 398.5,515.5C 399.609,515.557 400.609,515.89 401.5,516.5C 401.707,519.241 402.707,521.574 404.5,523.5C 404.328,524.492 404.662,525.158 405.5,525.5C 405.707,528.241 406.707,530.574 408.5,532.5C 409.853,538.717 412.853,543.883 417.5,548C 419.598,548.678 421.598,548.511 423.5,547.5C 425.371,547.141 426.871,546.141 428,544.5C 428.667,541.5 428.667,538.5 428,535.5C 423.871,526.249 420.038,516.915 416.5,507.5C 421.377,506.063 426.044,504.063 430.5,501.5C 436.865,514.894 443.198,528.227 449.5,541.5 Z"/></g>
<g><path style="opacity:1" fill="#323c38" d="M 176.5,499.5 C 175.567,502.37 173.9,504.704 171.5,506.5C 172.433,503.63 174.1,501.296 176.5,499.5 Z"/></g>
<g><path style="opacity:1" fill="#1f362d" d="M 193.5,519.5 C 193.989,514.87 194.989,510.37 196.5,506C 195.648,504.272 194.648,504.105 193.5,505.5C 194.809,502.222 196.642,499.222 199,496.5C 197.986,504.41 196.153,512.077 193.5,519.5 Z"/></g>
<g><path style="opacity:1" fill="#0a1612" d="M 398.5,515.5 C 399.947,514.115 400.947,514.448 401.5,516.5C 400.609,515.89 399.609,515.557 398.5,515.5 Z"/></g>
<g><path style="opacity:1" fill="#1f352d" d="M 189.5,511.5 C 188.567,514.37 186.9,516.704 184.5,518.5C 185.433,515.63 187.1,513.296 189.5,511.5 Z"/></g>
<g><path style="opacity:1" fill="#1e332b" d="M 262.5,514.5 C 261.567,517.37 259.9,519.704 257.5,521.5C 258.433,518.63 260.1,516.296 262.5,514.5 Z"/></g>
<g><path style="opacity:1" fill="#1a231f" d="M 365.5,522.5 C 359.737,521.095 354.07,521.428 348.5,523.5C 349.347,522.034 350.68,521.2 352.5,521C 354.333,520.833 356.167,520.667 358,520.5C 360.866,520.3 363.366,520.967 365.5,522.5 Z"/></g>
<g><path style="opacity:1" fill="#25322d" d="M 401.5,516.5 C 403.293,518.426 404.293,520.759 404.5,523.5C 402.707,521.574 401.707,519.241 401.5,516.5 Z"/></g>
<g><path style="opacity:1" fill="#fafafa" d="M 365.5,522.5 C 365.842,523.338 366.508,523.672 367.5,523.5C 370.951,526.463 373.451,530.13 375,534.5C 376.409,542.73 378.242,550.73 380.5,558.5C 380.216,560.415 380.549,562.081 381.5,563.5C 381.5,565.833 381.5,568.167 381.5,570.5C 376.167,571.5 370.833,572.5 365.5,573.5C 363.988,563.449 362.155,553.449 360,543.5C 359.777,541.119 358.61,539.453 356.5,538.5C 355.508,536.974 354.008,536.307 352,536.5C 349.198,536.32 347.031,537.32 345.5,539.5C 344.883,539.611 344.383,539.944 344,540.5C 343.192,544.027 343.359,547.36 344.5,550.5C 344.216,552.415 344.549,554.081 345.5,555.5C 345.261,561.184 346.261,566.518 348.5,571.5C 348.5,573.5 348.5,575.5 348.5,577.5C 343.153,578.073 337.82,578.74 332.5,579.5C 330.912,568.547 328.578,557.88 325.5,547.5C 325.29,541.527 324.29,535.694 322.5,530C 323.056,528.989 323.722,528.156 324.5,527.5C 329.186,526.963 333.853,526.296 338.5,525.5C 338.263,526.791 338.596,527.791 339.5,528.5C 339.366,536.175 340.366,536.175 342.5,528.5C 344.525,526.804 346.525,525.137 348.5,523.5C 354.07,521.428 359.737,521.095 365.5,522.5 Z"/></g>
<g><path style="opacity:1" fill="#23352e" d="M 367.5,523.5 C 371.884,525.394 374.718,528.727 376,533.5C 378.082,541.742 379.582,550.075 380.5,558.5C 378.242,550.73 376.409,542.73 375,534.5C 373.451,530.13 370.951,526.463 367.5,523.5 Z"/></g>
<g><path style="opacity:1" fill="#f9f9f9" d="M 308.5,543.5 C 308.46,548.193 308.127,552.859 307.5,557.5C 306.262,559.214 305.595,561.214 305.5,563.5C 303.5,563.167 301.5,562.833 299.5,562.5C 295.201,560.065 290.534,558.398 285.5,557.5C 283.208,555.733 280.542,554.733 277.5,554.5C 277.5,553.833 277.167,553.5 276.5,553.5C 274.883,552.962 273.216,552.629 271.5,552.5C 271.194,555.385 271.527,558.052 272.5,560.5C 272.328,561.492 272.662,562.158 273.5,562.5C 274.343,564.173 275.676,565.34 277.5,566C 280.367,566.801 283.034,566.634 285.5,565.5C 286.695,565.322 287.862,564.989 289,564.5C 292.021,566.007 295.188,567.007 298.5,567.5C 299.209,568.404 300.209,568.737 301.5,568.5C 301.611,569.117 301.944,569.617 302.5,570C 301.035,571.774 299.702,573.608 298.5,575.5C 291.254,579.491 283.588,580.491 275.5,578.5C 272.744,576.796 269.744,575.463 266.5,574.5C 264.167,571.5 261.5,568.833 258.5,566.5C 258.204,564.597 257.537,562.93 256.5,561.5C 255.838,557.534 255.505,553.534 255.5,549.5C 257.09,544.41 259.09,539.41 261.5,534.5C 263.833,532.833 265.833,530.833 267.5,528.5C 280.422,521.995 292.255,523.662 303,533.5C 305.13,536.767 306.963,540.1 308.5,543.5 Z"/></g>
<g><path style="opacity:1" fill="#1c2d26" d="M 192.5,524.5 C 191.493,530.513 190.493,536.513 189.5,542.5C 188.371,540.372 188.204,538.039 189,535.5C 189.864,531.616 191.03,527.949 192.5,524.5 Z"/></g>
<g><path style="opacity:1" fill="#1e322a" d="M 182.5,521.5 C 181.567,524.37 179.9,526.704 177.5,528.5C 178.433,525.63 180.1,523.296 182.5,521.5 Z"/></g>
<g><path style="opacity:1" fill="#26342e" d="M 228.5,532.5 C 228.703,530.956 229.37,529.622 230.5,528.5C 230.043,527.702 229.376,527.369 228.5,527.5C 230.603,524.875 233.27,523.375 236.5,523C 233.969,526.358 231.302,529.524 228.5,532.5 Z"/></g>
<g><path style="opacity:1" fill="#273932" d="M 416.5,507.5 C 420.038,516.915 423.871,526.249 428,535.5C 428.667,538.5 428.667,541.5 428,544.5C 426.871,546.141 425.371,547.141 423.5,547.5C 427.171,544.707 428.338,541.04 427,536.5C 423.108,527.049 418.941,517.715 414.5,508.5C 414.957,507.702 415.624,507.369 416.5,507.5 Z"/></g>
<g><path style="opacity:1" fill="#25322d" d="M 405.5,525.5 C 407.293,527.426 408.293,529.759 408.5,532.5C 406.707,530.574 405.707,528.241 405.5,525.5 Z"/></g>
<g><path style="opacity:1" fill="#1b2421" d="M 339.5,528.5 C 340.5,529.833 341.5,529.833 342.5,528.5C 340.366,536.175 339.366,536.175 339.5,528.5 Z"/></g>
<g><path style="opacity:1" fill="#2c3a34" d="M 267.5,528.5 C 265.833,530.833 263.833,532.833 261.5,534.5C 262.5,531.5 264.5,529.5 267.5,528.5 Z"/></g>
<g><path style="opacity:1" fill="#1b372c" d="M 324.5,527.5 C 323.722,528.156 323.056,528.989 322.5,530C 324.29,535.694 325.29,541.527 325.5,547.5C 323.548,541.072 322.214,534.405 321.5,527.5C 322.5,527.5 323.5,527.5 324.5,527.5 Z"/></g>
<g><path style="opacity:1" fill="#14211c" d="M 356.5,538.5 C 352.692,537.127 349.026,537.46 345.5,539.5C 347.031,537.32 349.198,536.32 352,536.5C 354.008,536.307 355.508,536.974 356.5,538.5 Z"/></g>
<g><path style="opacity:1" fill="#136449" d="M 288.5,538.5 C 289.458,539.962 290.624,541.295 292,542.5C 292.494,544.134 292.66,545.801 292.5,547.5C 289.739,546.08 286.739,545.413 283.5,545.5C 281.213,545.276 279.047,544.609 277,543.5C 275.743,543.15 275.409,542.483 276,541.5C 279.507,537.505 283.674,536.505 288.5,538.5 Z"/></g>
<g><path style="opacity:1" fill="#263831" d="M 356.5,538.5 C 358.61,539.453 359.777,541.119 360,543.5C 362.155,553.449 363.988,563.449 365.5,573.5C 370.833,572.5 376.167,571.5 381.5,570.5C 381.5,568.167 381.5,565.833 381.5,563.5C 382.817,566.23 382.817,569.063 381.5,572C 375.871,573.16 370.204,573.993 364.5,574.5C 362.714,562.227 360.047,550.227 356.5,538.5 Z"/></g>
<g><path style="opacity:1" fill="#1f352d" d="M 246.5,537.5 C 245.567,540.37 243.9,542.704 241.5,544.5C 242.433,541.63 244.1,539.296 246.5,537.5 Z"/></g>
<g><path style="opacity:1" fill="#0e2b21" d="M 345.5,539.5 C 344.656,543.099 344.323,546.766 344.5,550.5C 343.359,547.36 343.192,544.027 344,540.5C 344.383,539.944 344.883,539.611 345.5,539.5 Z"/></g>
<g><path style="opacity:1" fill="#273831" d="M 449.5,541.5 C 451.293,543.426 452.293,545.759 452.5,548.5C 450.707,546.574 449.707,544.241 449.5,541.5 Z"/></g>
<g><path style="opacity:1" fill="#2f443b" d="M 288.5,538.5 C 293.907,540.64 295.407,544.307 293,549.5C 289.596,548.543 286.429,547.21 283.5,545.5C 286.739,545.413 289.739,546.08 292.5,547.5C 292.66,545.801 292.494,544.134 292,542.5C 290.624,541.295 289.458,539.962 288.5,538.5 Z"/></g>
<g><path style="opacity:1" fill="#0d281f" d="M 308.5,543.5 C 309.161,545.134 309.494,546.967 309.5,549C 309.64,552.15 308.973,554.983 307.5,557.5C 308.127,552.859 308.46,548.193 308.5,543.5 Z"/></g>
<g><path style="opacity:1" fill="#2e3934" d="M 217.5,548.5 C 216.111,551.607 214.445,554.607 212.5,557.5C 213.193,558.518 213.859,559.518 214.5,560.5C 212.616,560.288 211.283,559.288 210.5,557.5C 212.506,554.171 214.839,551.171 217.5,548.5 Z"/></g>
<g><path style="opacity:1" fill="#112920" d="M 255.5,549.5 C 255.505,553.534 255.838,557.534 256.5,561.5C 254.983,559.538 254.316,557.205 254.5,554.5C 254.507,552.631 254.84,550.964 255.5,549.5 Z"/></g>
<g><path style="opacity:1" fill="#273c33" d="M 325.5,547.5 C 328.578,557.88 330.912,568.547 332.5,579.5C 337.82,578.74 343.153,578.073 348.5,577.5C 348.5,575.5 348.5,573.5 348.5,571.5C 349.283,573.343 349.95,575.343 350.5,577.5C 344.522,578.962 338.522,580.296 332.5,581.5C 329.156,570.45 326.823,559.116 325.5,547.5 Z"/></g>
<g><path style="opacity:1" fill="#1e312a" d="M 239.5,547.5 C 238.567,550.37 236.9,552.704 234.5,554.5C 235.433,551.63 237.1,549.296 239.5,547.5 Z"/></g>
<g><path style="opacity:1" fill="#1e322b" d="M 452.5,548.5 C 453.773,549.077 453.773,549.743 452.5,550.5C 450.021,552.076 447.354,553.076 444.5,553.5C 447.167,551.833 449.833,550.167 452.5,548.5 Z"/></g>
<g><path style="opacity:1" fill="#1b342b" d="M 433.5,552.5 C 433.306,556.248 431.639,558.915 428.5,560.5C 430.181,557.797 431.847,555.131 433.5,552.5 Z"/></g>
<g><path style="opacity:1" fill="#0d251c" d="M 276.5,553.5 C 275.458,554.791 274.292,554.791 273,553.5C 272.503,555.81 272.337,558.143 272.5,560.5C 271.527,558.052 271.194,555.385 271.5,552.5C 273.216,552.629 274.883,552.962 276.5,553.5 Z"/></g>
<g><path style="opacity:1" fill="#23332c" d="M 277.5,554.5 C 280.542,554.733 283.208,555.733 285.5,557.5C 282.458,557.267 279.792,556.267 277.5,554.5 Z"/></g>
<g><path style="opacity:1" fill="#192722" d="M 444.5,553.5 C 442.836,554.999 440.836,555.999 438.5,556.5C 436.822,555.094 435.156,553.761 433.5,552.5C 433.34,550.801 433.506,549.134 434,547.5C 435.247,550.329 436.747,552.995 438.5,555.5C 440.323,554.253 442.323,553.586 444.5,553.5 Z"/></g>
<g><path style="opacity:1" fill="#1a2d26" d="M 285.5,557.5 C 290.534,558.398 295.201,560.065 299.5,562.5C 294.466,561.602 289.799,559.935 285.5,557.5 Z"/></g>
<g><path style="opacity:1" fill="#22382f" d="M 345.5,555.5 C 347.246,560.572 348.246,565.905 348.5,571.5C 346.261,566.518 345.261,561.184 345.5,555.5 Z"/></g>
<g><path style="opacity:1" fill="#1e3129" d="M 273.5,562.5 C 277.064,564.968 281.064,565.968 285.5,565.5C 283.034,566.634 280.367,566.801 277.5,566C 275.676,565.34 274.343,564.173 273.5,562.5 Z"/></g>
<g><path style="opacity:1" fill="#293530" d="M 298.5,567.5 C 295.188,567.007 292.021,566.007 289,564.5C 287.862,564.989 286.695,565.322 285.5,565.5C 286.134,564.053 287.301,563.387 289,563.5C 292.458,564.368 295.624,565.701 298.5,567.5 Z"/></g>
<g><path style="opacity:1" fill="#39413e" d="M 407.5,563.5 C 412.833,564.833 418.167,564.833 423.5,563.5C 421.193,565.047 418.527,565.713 415.5,565.5C 412.473,565.713 409.807,565.047 407.5,563.5 Z"/></g>
<g><path style="opacity:1" fill="#20332c" d="M 230.5,560.5 C 229.428,563.63 227.594,566.296 225,568.5C 222.882,567.717 221.382,566.384 220.5,564.5C 222.044,564.703 223.378,565.37 224.5,566.5C 226.507,564.467 228.507,562.467 230.5,560.5 Z"/></g>
<g><path style="opacity:1" fill="#2d3935" d="M 258.5,566.5 C 261.5,568.833 264.167,571.5 266.5,574.5C 262.833,572.833 260.167,570.167 258.5,566.5 Z"/></g>
<g><path style="opacity:1" fill="#193128" d="M 301.5,568.5 C 303.225,568.843 303.725,569.843 303,571.5C 302.124,573.635 300.624,574.969 298.5,575.5C 299.702,573.608 301.035,571.774 302.5,570C 301.944,569.617 301.611,569.117 301.5,568.5 Z"/></g>
<g><path style="opacity:1" fill="#183128" d="M 298.5,575.5 C 296.351,577.746 293.684,579.246 290.5,580C 286.5,580.667 282.5,580.667 278.5,580C 277.263,579.768 276.263,579.268 275.5,578.5C 283.588,580.491 291.254,579.491 298.5,575.5 Z"/></g>
</svg>
